<svg xmlns="http://www.w3.org/2000/svg" height="1024" preserveAspectRatio="none" style="display: block;" version="1.1" viewBox="0 0 2048 2048" width="1024">
<path d="M 968.67 496.428 C 993.922 494.991 1022.18 497.644 1046.63 496.473 C 1103.34 494.202 1143.63 493.835 1186.25 537.223 C 1234.59 586.443 1228.79 635.249 1228.65 698.204 C 1228.38 739.276 1228.42 780.349 1228.78 821.419 C 1281.47 819.498 1336.65 821.162 1389.46 820.118 C 1427.22 819.371 1462.1 835.957 1488.58 862.843 C 1534.82 909.802 1527.99 955.009 1527.75 1014.83 L 1418.39 1014.9 C 1418.06 1002.6 1418.32 989.332 1415.57 977.84 C 1405.58 936.09 1370.73 924.1 1331.68 926.569 C 1309.27 925.859 1282.08 928.884 1260.09 924.805 C 1193.06 912.37 1128.58 845.389 1121.64 777.061 C 1119.15 752.562 1120.21 725.817 1120.41 701.8 C 1120.72 665.588 1119.01 635.404 1085.93 614.226 C 1071.62 605.955 1059.87 602.92 1043.56 602.696 C 1013.1 602.278 986.725 600.788 963.579 624.076 C 940.744 647.051 941.587 670.102 941.764 699.807 L 942.038 745.808 C 942.026 795.646 920.431 844.173 885.226 878.97 C 831.816 931.76 788.364 927.41 719.641 926.728 C 696.694 926.5 678.464 928.346 661.435 945.483 C 641.941 965.1 643.162 988.537 643.231 1014.3 L 532.613 1014.91 C 533.102 950.982 525.816 911.96 574.796 861.359 C 623.002 811.556 671.391 819.747 734.197 820.447 C 766.93 820.87 799.667 821.046 832.403 820.975 C 833.981 757.053 831.538 692.59 833.043 628.641 C 833.605 622.374 834.304 615.629 835.905 609.554 C 852.806 545.42 902.794 501.535 968.67 496.428 z" fill="rgb(56,166,210)" transform="translate(0,0)"></path>
<path d="M 1418.32 1064.98 L 1527.88 1062.94 C 1527.27 1101.89 1527.97 1127.37 1509.18 1163.93 C 1487.47 1196.21 1450.05 1219.64 1412.35 1228.24 C 1395.86 1232 1371.71 1229.26 1354.2 1229.2 C 1312.24 1229.04 1270.31 1227.16 1228.31 1226.83 L 1228.15 1339.5 C 1228.14 1411.31 1237.35 1453.53 1181.97 1509.57 C 1170.85 1520.94 1157.96 1530.44 1143.81 1537.7 C 1105 1558.04 1090.45 1550.37 1048 1551.2 C 1022.26 1552.17 996.469 1549.92 970.728 1551.37 C 912.552 1554.65 853.623 1497.18 838.124 1444.6 C 830.598 1419.07 832.844 1372.97 832.784 1344.7 L 832.865 1226.82 C 781.849 1227.1 730.418 1229.91 678.849 1229.48 C 636.028 1229.12 604.303 1219.67 573.01 1188.01 C 535.126 1149.67 532.497 1112.66 532.725 1063.03 C 569.084 1063.97 605.45 1064.66 641.818 1065.09 C 649.944 1121.55 691.961 1126.35 739.345 1124.65 C 756.83 1124.02 792.696 1123.74 808.493 1126.91 C 873.593 1139.98 933.141 1209.49 941.013 1274.78 C 941.786 1298.73 943.415 1324.98 941.984 1348.91 C 939.433 1391.57 958.633 1429.88 1004.34 1436.5 C 1030.18 1440.24 1066.56 1440.3 1089.57 1423.69 C 1139.4 1387.74 1111.79 1314.52 1122.2 1263.03 C 1129.16 1227.64 1140.34 1210.48 1161.07 1183.16 C 1205.43 1119.31 1267.55 1123.81 1337.22 1125 C 1381.22 1125.74 1410.53 1113.71 1418.32 1064.98 z" fill="rgb(56,166,210)" transform="translate(0,0)"></path>
<path d="M 976.96 1002.15 C 989.452 929.264 1009.44 850.328 1024.82 777.401 C 1028.3 809.233 1031.54 841.092 1034.55 872.972 C 1037.25 899.609 1040.42 926.178 1042.51 952.849 C 1046.43 1002.86 1047.48 1055.36 1052.99 1105.03 C 1053.04 1111.02 1053.16 1115.43 1053.68 1121.44 L 1055.66 1107.28 L 1055.86 1106.16 C 1060.9 1078.78 1066.64 1051.59 1072.14 1024.3 C 1075.26 1008.84 1077.33 991.635 1082.66 976.798 C 1084.02 973.012 1085.39 969.296 1088.96 967.073 C 1091.87 965.263 1095.63 964.685 1098.96 965.464 C 1110.05 968.057 1136.79 1016.32 1144.67 1028.02 C 1179.18 1028.18 1517.71 1029.19 1525.84 1035.19 C 1528.21 1036.95 1528.33 1037.7 1528.51 1040.39 C 1527.48 1041.95 1526.79 1042.63 1525.09 1043.52 C 1510.81 1051 1168.42 1055.23 1132.69 1052.99 C 1128.76 1052.74 1125.31 1051.8 1121.62 1050.48 C 1115.51 1042.73 1104.9 1022.46 1098.79 1012.44 C 1097.07 1030.43 1092.11 1052.8 1088.56 1070.72 C 1082.01 1103.99 1075.16 1137.2 1068.01 1170.34 L 1055.11 1232.06 C 1052.76 1243.25 1049.66 1260.27 1045.81 1270.68 C 1042.35 1217.67 1031.65 1160.27 1027.03 1106.78 C 1022.74 1057.11 1019.43 1007.11 1014.7 957.526 C 1007.48 981.534 1006.13 1010.98 999.772 1035.6 C 997.343 1045.91 994.96 1069.09 982.835 1072.77 C 961.028 1079.39 956.86 1045.39 953.329 1032.56 C 948.142 1013.17 942.691 993.853 936.975 974.611 C 922.519 988.792 908.191 1003.1 893.992 1017.54 C 884.159 1027.48 866.898 1045.98 856.166 1052.84 C 837.054 1053.55 814.531 1052.96 795.224 1052.9 C 753.349 1053 711.475 1052.35 669.623 1050.95 C 624.117 1049.36 577.956 1046.71 532.497 1046.01 L 532.251 1034.06 L 845.22 1027.06 C 861.736 1011.11 921.383 941.617 937.1 936.809 C 941.239 935.543 945.588 935.927 949.384 938.03 C 962.948 945.545 969.622 986.62 974.502 1002.03 L 975.541 1004.95 L 976.653 1004.64 L 976.96 1002.15 z" fill="rgb(56,166,210)" transform="translate(0,0)"></path>
<metadata><recraft-signature>{"signed_by": "recraft", "signature_b64": "qS7dXzLW2GTbF+rPSlqHRNiR7DCMc/u1MFst2cZffnM4ncFt5v4oE274He/VY23VCFGJJ1v2hP/FpJ+ckmC2DQ==", "signing_algo": "Ed25519", "generation_timestamp": 1783762032, "identifier": "f1c8096c-06a7-4f1b-bc10-0c051526fde8"}</recraft-signature></metadata></svg>
