<svg xmlns="http://www.w3.org/2000/svg" height="1024" preserveAspectRatio="none" style="display: block;" version="1.1" viewBox="0 0 2048 2048" width="1024">
<path d="M 735.628 735.771 L 987.422 736.04 C 989.544 858.399 987.722 979.838 988.977 1101.95 C 966.055 1115.19 942.932 1128.08 919.618 1140.62 C 916.953 1030.17 920.196 917.021 918.618 806.086 L 825.044 805.955 C 811.837 806.063 798.937 805.505 785.747 805.004 C 768.912 857.653 768.078 888.984 768.062 943.457 L 768.11 1025.18 C 767.939 1089.07 768.123 1152.95 768.663 1216.83 L 691.581 1260.47 C 692.599 1224.6 691.61 1185.43 691.345 1149.4 L 690.96 992.83 C 690.905 894.22 685.606 826.267 735.628 735.771 z" fill="rgb(142,214,236)" transform="translate(0,0)"></path>
<path d="M 1356.53 976.8 L 1358.22 977.066 C 1359.24 980.821 1358.46 1009.21 1358.41 1015.2 L 1358.02 1103.82 L 1358.56 1517.1 L 1567.36 1517.06 C 1566.55 1542.95 1566.71 1570.31 1565.44 1595.89 L 1493.5 1595.93 L 1280.35 1595.51 L 1280.11 1019.23 L 1356.53 976.8 z" fill="rgb(40,112,179)" transform="translate(0,0)"></path>
<path d="M 979.589 393.406 C 981.132 393.122 987.247 392.935 989.14 392.843 L 989.06 475.715 C 964.923 478.552 944.94 481.979 921.498 488.786 C 828.63 515.751 742.182 584.023 695.917 669.31 L 411.5 669.038 C 407.523 669.132 405.412 669.479 401.699 668.276 C 400.903 664.631 401.204 648.095 401.203 643.619 L 401.189 590.3 C 481.972 590.927 562.759 590.806 643.54 589.935 C 652.723 577.907 660.805 566.386 670.634 554.699 C 747.919 461.799 859.184 403.712 979.589 393.406 z" fill="rgb(142,214,236)" transform="translate(0,0)"></path>
<path d="M 485.691 735.974 L 656.957 736.21 C 649.724 757.054 643.007 774.724 638.164 796.473 C 627.375 844.925 627.888 888.88 627.979 937.962 L 628.138 1043.14 L 628.064 1294.11 C 624.839 1296.23 620.753 1298.48 617.369 1300.47 C 595.685 1311.73 570.607 1328.38 549.558 1338.42 C 550.434 1295.36 549.411 1250.17 549.597 1206.89 C 550.326 1072.96 550.158 939.03 549.095 805.103 L 485.982 805.078 L 485.691 735.974 z" fill="rgb(142,214,236)" transform="translate(0,0)"></path>
<path d="M 1057.97 735.913 L 1316.46 736.207 C 1344.83 795.944 1352.53 833.032 1359.15 898.717 C 1333.33 913.071 1306.15 929.906 1280.12 943.379 C 1280.18 893.701 1282.22 853.776 1270.43 805.239 L 1238.5 805.413 L 1129.93 805.651 L 1128.88 1025.16 C 1110.6 1037.93 1078.64 1053.73 1057.76 1064.78 C 1058.62 1029.08 1057.99 990.863 1058.06 955 L 1057.97 735.913 z" fill="rgb(142,214,236)" transform="translate(0,0)"></path>
<path d="M 1496.65 899.946 C 1499.08 902.485 1498.13 915.075 1498.12 919.246 C 1498.04 947.623 1497.93 975.999 1497.92 1004.38 L 1498.11 1454.91 L 1424.33 1454.75 C 1421.26 1450 1424.17 997.275 1424.13 940.562 C 1444.27 928.025 1475.48 911.51 1496.65 899.946 z" fill="rgb(40,112,179)" transform="translate(0,0)"></path>
<path d="M 766.292 1294.92 L 767.593 1295.63 C 768.534 1302.65 768.016 1317.65 768.027 1325.34 L 768.182 1384.94 L 768.239 1596.1 L 484.921 1596.34 L 484.268 1596.04 C 482.087 1592.8 482.989 1526.57 483.005 1517.05 L 691.718 1516.97 C 693.35 1459.2 691.917 1395.07 691.692 1336.94 C 715.036 1322.77 742.219 1308.34 766.292 1294.92 z" fill="rgb(40,112,179)" transform="translate(0,0)"></path>
<path d="M 860.59 590.969 C 895.399 590.065 932.671 590.621 967.713 590.492 C 1043.4 590.148 1119.09 590.21 1194.78 590.68 C 1199.58 594.518 1204.36 598.384 1209.11 602.277 C 1228.76 616.678 1258.74 649.692 1273.12 669.114 L 1125.81 669.038 C 1100.71 669.055 1073.48 669.648 1048.69 669.04 C 1018.37 670.442 978.855 669.157 947.963 669.105 L 780.515 669.053 C 798.517 644.996 836.445 608.741 860.59 590.969 z" fill="rgb(142,214,236)" transform="translate(0,0)"></path>
<path d="M 1209.11 602.277 C 1228.76 616.678 1258.74 649.692 1273.12 669.114 L 1125.81 669.038 C 1100.71 669.055 1073.48 669.648 1048.69 669.04 C 1068.23 656.53 1185 607.257 1209.11 602.277 z" fill="rgb(40,112,179)" transform="translate(0,0)"></path>
<path d="M 1280.8 575.672 C 1287.98 571.682 1307.65 566.322 1316.4 563.741 L 1371.7 547.33 C 1381.01 558.087 1398.54 578.224 1405.06 590.373 L 1650.76 589.994 L 1650.74 669.135 L 1457.57 669.008 C 1424.31 669.051 1388.76 668.485 1355.66 669.316 C 1334.92 635.679 1310.05 602.468 1280.8 575.672 z" fill="rgb(40,112,179)" transform="translate(0,0)"></path>
<path d="M 849.191 1517.15 L 1197.14 1516.8 C 1197.18 1542.37 1197.68 1569.99 1196.93 1595.38 C 1081.08 1596.24 965.23 1596.19 849.386 1595.24 C 849.143 1569.21 849.078 1543.18 849.191 1517.15 z" fill="rgb(40,112,179)" transform="translate(0,0)"></path>
<path d="M 1061.09 393.596 C 1065.86 393.779 1070.62 394.021 1075.38 394.322 C 1189.14 401.849 1297.2 462.309 1371.7 547.33 L 1316.4 563.741 C 1307.65 566.322 1287.98 571.682 1280.8 575.672 C 1208.23 512.995 1154.76 490.003 1061.23 475.678 L 1061.09 393.596 z" fill="rgb(142,214,236)" transform="translate(0,0)"></path>
<path d="M 1127.98 1104.1 C 1129.76 1106.04 1129.01 1412.96 1128.83 1454.64 L 1059.32 1454.75 L 1058.9 1454.33 C 1057.46 1450.67 1058.18 1395.93 1058.16 1386.3 L 1058.16 1143.19 C 1079.93 1129.89 1105.5 1116.47 1127.98 1104.1 z" fill="rgb(40,112,179)" transform="translate(0,0)"></path>
<path d="M 987.534 1179.95 L 988.359 1180.55 C 990.564 1186.31 988.868 1428.78 988.798 1454.63 L 920.169 1454.93 C 918.77 1449.49 919.132 1398.93 919.122 1389.69 L 919.312 1217.29 C 938.683 1205.17 966.699 1191.12 987.534 1179.95 z" fill="rgb(40,112,179)" transform="translate(0,0)"></path>
<path d="M 1395.22 736.257 C 1450.6 735.389 1507.59 736.069 1563.04 736.155 L 1562.94 805.019 L 1501.75 805.055 C 1500.09 805.1 1501.02 804.905 1499.08 806.089 C 1498.04 810.883 1498.67 817.42 1498.88 822.484 C 1479.8 835.52 1442.93 854.601 1422.35 865.61 C 1419.12 818.031 1410.67 780.837 1395.22 736.257 z" fill="rgb(40,112,179)" transform="translate(0,0)"></path>
<path d="M 625.635 1370.94 C 625.979 1370.96 627.223 1370.91 627.641 1371.29 C 628.907 1372.41 628.124 1446.85 628.107 1454.92 L 552.249 1454.82 C 549.708 1452.88 550.46 1417.83 550.215 1411.81 C 562.152 1404.85 574.467 1398.82 586.575 1392.16 C 599.398 1385.11 612.535 1377.39 625.635 1370.94 z" fill="rgb(40,112,179)" transform="translate(0,0)"></path>
<metadata><recraft-signature>{"signed_by": "recraft", "signature_b64": "5c7Z5nPwe/O4idc34vsfoCLGEUZw1gLeMQVY6qIuIkV2IlPOAKNL2Ffg7Xg4nNSPw5hlPpTBuwtfP+V3AqG1BA==", "signing_algo": "Ed25519", "generation_timestamp": 1783762048, "identifier": "8de98724-f9d2-4caf-a1ca-7bad04050b8d"}</recraft-signature></metadata></svg>
