<svg xmlns="http://www.w3.org/2000/svg" height="1024" preserveAspectRatio="none" style="display: block;" version="1.1" viewBox="0 0 2048 2048" width="1024">
<path d="M 1024.31 282.729 C 1027.55 301.306 1032.35 319.834 1036.03 338.452 C 1043.11 374.873 1049.19 411.483 1054.25 448.24 C 1072.8 584.934 1080.44 716.11 1085.06 853.5 C 1093.47 1058.99 1087.51 1264.81 1067.2 1469.47 C 1060.12 1535.62 1051.25 1601.56 1040.59 1667.23 C 1035.53 1698.01 1028.01 1729.76 1023.58 1760.28 L 1022.66 1759.37 C 1018.89 1744.61 1015.08 1718.19 1012.37 1702.48 C 1004.09 1655.87 997.036 1609.05 991.219 1562.07 C 947.362 1202.7 947.375 839.334 991.258 479.969 C 997.144 432.984 1002.84 387.741 1012.47 341.157 C 1016.24 322.925 1019.35 300.321 1024.31 282.729 z" fill="rgb(142,214,236)" transform="translate(0,0)"></path>
<path d="M 408.198 1032.7 L 605.019 1032.94 C 656.016 1032.91 708.216 1032.22 759.096 1032.94 L 759.105 1034.28 C 759.116 1076.94 738.964 1114.28 709.446 1143.95 C 627.844 1222.39 482.44 1204.48 428.066 1103.16 C 416.5 1081.61 409.225 1057.19 408.198 1032.7 z" fill="rgb(56,166,210)" transform="translate(0,0)"></path>
<path d="M 1289.94 1032.29 L 1641.63 1032.89 C 1639.7 1077.78 1622.51 1112.81 1590.65 1143.72 C 1559.95 1173.6 1521.2 1189.44 1478.61 1192.48 C 1430.06 1196.02 1382.11 1179.91 1345.55 1147.77 C 1310.35 1116.71 1292.64 1078.82 1289.94 1032.29 z" fill="rgb(56,166,210)" transform="translate(0,0)"></path>
<path d="M 1066.37 424.872 C 1122.77 424.648 1179.16 425.869 1235.5 428.534 C 1333.51 433.988 1431.12 445.059 1527.86 461.692 C 1547.88 465.188 1568.25 468.505 1587.9 473.518 C 1594.78 475.276 1604.94 476.42 1611.26 478.935 L 1610.68 479.884 C 1432.58 479.162 1254.48 480.113 1076.4 482.737 C 1074.91 466.442 1069.57 441.56 1066.37 424.872 z" fill="rgb(142,214,236)" transform="translate(0,0)"></path>
<path d="M 440.283 478.239 C 618.786 440.286 800.97 422.391 983.446 424.887 C 979.412 443.821 975.767 462.836 972.511 481.92 L 592.775 480.175 L 488.682 480.048 C 477.012 480.052 450.48 479.33 440.813 480.442 C 438.048 480.079 438.761 480.54 436.618 479.203 L 440.283 478.239 z" fill="rgb(142,214,236)" transform="translate(0,0)"></path>
<path d="M 587.958 480.36 C 594.41 494.719 600.502 512.516 606.03 527.452 C 620.351 565.421 633.333 603.881 644.953 642.761 C 656.268 679.459 667.177 716.28 677.679 753.218 C 699.624 832.939 719.179 914.163 740.715 994.134 L 737.936 995.837 C 730.899 971.82 720.846 945.17 712.527 921.292 C 694.424 869.964 676.791 818.473 659.629 766.823 C 644.814 722.227 630.595 677.435 616.977 632.459 C 609.501 607.915 597.294 563.752 588.094 541.564 C 571.255 587.258 555.869 637.719 539.674 684.39 L 422.367 1017.35 C 422.139 1015.72 421.936 1014.09 421.759 1012.45 C 425.174 1004.31 433.987 969.091 436.829 958.993 L 471.507 835.825 C 483.179 795.018 495.038 752.027 507.513 711.584 C 531.632 633.598 558.463 556.476 587.958 480.36 z" fill="rgb(56,166,210)" transform="translate(0,0)"></path>
<path d="M 1305 1011.85 C 1312.48 980.967 1322.17 948.353 1330.73 917.515 C 1347.5 856.646 1364.97 795.97 1383.13 735.501 C 1401.92 673.16 1420.77 611.055 1443.46 549.982 C 1451.74 527.703 1460.18 502.966 1469.85 481.381 C 1484.24 514.75 1494.83 548.771 1507.09 582.822 C 1541.67 678.866 1566 777.128 1592.3 875.564 L 1616.59 969.945 C 1618.15 976.101 1626.78 1010.31 1628.3 1013.75 L 1625.53 1012.83 C 1623.01 999.208 1608.23 959.932 1603.32 946.16 C 1590.68 910.328 1578.27 874.415 1566.1 838.422 L 1502.2 644.749 C 1491.15 610.341 1482.34 574.075 1468.99 540.544 C 1463.02 555.476 1459.26 570.06 1454.35 585.269 C 1432.16 654.068 1408.35 722.372 1384.81 790.721 L 1332.09 938.992 C 1324.59 960.264 1312.72 991.606 1307.06 1012.96 L 1305 1011.85 z" fill="rgb(56,166,210)" transform="translate(0,0)"></path>
<path d="M 740.715 994.134 C 741.37 996.156 750.094 1028.04 750.097 1028.47 L 749.995 1028.51 L 749.962 1028.48 L 749.235 1028.38 C 747.087 1024.47 739.764 1001.24 737.936 995.837 L 740.715 994.134 z" fill="rgb(142,214,236)" transform="translate(0,0)"></path>
<path d="M 1305 1011.85 L 1307.06 1012.96 C 1306.84 1013.83 1302.43 1031.34 1300.48 1027.99 C 1300.59 1026.67 1304.47 1013.42 1305 1011.85 z" fill="rgb(142,214,236)" transform="translate(0,0)"></path>
<path d="M 421.759 1012.45 C 421.936 1014.09 422.139 1015.72 422.367 1017.35 C 422.205 1018.92 419.639 1028.25 418.979 1028.84 C 418.282 1028.99 418.197 1028.93 417.52 1028.5 C 418.744 1025.92 420.348 1016.75 421.759 1012.45 z" fill="rgb(142,214,236)" transform="translate(0,0)"></path>
<path d="M 1625.53 1012.83 L 1628.3 1013.75 C 1628.98 1016.2 1629.77 1019.01 1630.32 1021.44 L 1629.62 1022.42 L 1629.92 1023 L 1630.26 1023.17 C 1628.51 1024.94 1625.96 1014.17 1625.53 1012.83 z" fill="rgb(142,214,236)" transform="translate(0,0)"></path>
<metadata><recraft-signature>{"signed_by": "recraft", "signature_b64": "aIIOPUoURdcU0k5IFW1joLmT3aro4tqyIo8wWsDsVTdp0qs9HrWgCXPcpkb3AqkMi9gpXBbO5CI87khcOZOsDw==", "signing_algo": "Ed25519", "generation_timestamp": 1783762051, "identifier": "2907b5df-8e3a-4c3b-90cf-198df3f186f6"}</recraft-signature></metadata></svg>
